<?xml version="1.0"?>
<svg version="1.1" xmlns="http://www.w3.org/2000/svg" width="305" height="60" style=""><path fill="#e9e786" d="M16.8,51.6l0-2.4l3.4-0.8l0-21.6l-3.4-0.8l0-2.2l11-0.2l0,2.4l-3.4,0.8l0,21.6l3.4,0.8l0,2.4l-11,0z M40.544,30.4l0.36,2.84c0.96-0.84,4.12-3.24,7.44-3.24c4.4,0,6.4,2.8,6.4,7.2l0,11.2l3,1l0,2.2l-9.6,0l0-2.2l2.6-1l0-10.8c0-2.8-1-4.2-3.6-4.2c-3.4,0-5.8,3.2-5.8,3.2l0,11.8l2.6,1l0,2.2l-10,0l0-2.2l3.4-1l0-14.8l-3.4-0.8l0-2.2z M66.328,45.2l0.44,3.44s1.2,0.36,3.36,0.36c2.4,0,4.52-0.68,4.52-3.16c0-4.32-11.16-2.32-11.16-9.6c0-4.16,3.2-6.24,7.32-6.24c3.16,0,6.84,1.2,6.84,1.2l-0.12,5.4l-2.6,0l-0.64-3.12s-1.24-0.48-3.24-0.48c-2.04,0-3.56,0.64-3.56,2.68c0,4.28,11.16,2.64,11.16,9.48c0,4.6-4,6.84-8.8,6.84c-3.68,0-6.32-0.88-6.32-0.88l0-5.92l2.8,0z M97.792,30.6l0,3l-5.8,0l0,12.84c0,1.84,0.88,2.44,2,2.44c0.96,0,2.08-0.44,3.12-1l1.08,2.12c-1.8,1.32-3.6,2-5.6,2c-2.4,0-4.6-1.32-4.6-5.8l0-12.6l-4,0l0-2.6l4-0.4l0-5.04l4-0.8l0,5.84l5.8,0z M104.936,36.6l-0.2-5s4.4-1.6,7.8-1.6c4.64,0,7.4,1.6,7.4,6.2l0,12.2l3.2,0.8l0,2.2l-6.2,0.2l-0.84-2.8c-1.36,1.36-3.76,3.2-6.56,3.2c-3.8,0-6-2.2-6-6c0-4.6,3.6-6.2,9.2-6.2l3.2,0l0-3.2c0-2.4-1.4-3.6-3.8-3.6s-4.04,0.6-4.04,0.6l-0.56,3l-2.6,0z M115.936,42.4l-2.8,0c-4,0-5.52,1-5.52,3.4c0,1.8,1.12,3,2.92,3c3,0,5.4-3.2,5.4-3.2l0-3.2z M135.28,30.4l0.36,2.84c0.96-0.84,4.12-3.24,7.44-3.24c4.4,0,6.4,2.8,6.4,7.2l0,11.2l3,1l0,2.2l-9.6,0l0-2.2l2.6-1l0-10.8c0-2.8-1-4.2-3.6-4.2c-3.4,0-5.8,3.2-5.8,3.2l0,11.8l2.6,1l0,2.2l-10,0l0-2.2l3.4-1l0-14.8l-3.4-0.8l0-2.2z M171.024,30.6l0,3l-5.8,0l0,12.84c0,1.84,0.88,2.44,2,2.44c0.96,0,2.08-0.44,3.12-1l1.08,2.12c-1.8,1.32-3.6,2-5.6,2c-2.4,0-4.6-1.32-4.6-5.8l0-12.6l-4,0l0-2.6l4-0.4l0-5.04l4-0.8l0,5.84l5.8,0z M213.512,26.8l0,13.4c0,7.4-2.6,11.8-11,11.8c-7.8,0-10.6-3.8-10.6-11.2l0-14l-3.4-0.8l0-2.2l11.4-0.2l0,2.4l-3.8,0.8l0,14c0,6,2,7.8,6.6,7.8c5,0,6.6-2.2,6.6-8.4l0-13.4l-3.8-0.8l0-2.2l11.4-0.2l0,2.4z M223.056,51.6l0-2.4l3.4-0.8l0-21.6l-3.4-0.8l0-2.2l11-0.2l0,2.4l-3.4,0.8l0,21.6l3.4,0.8l0,2.4l-11,0z"/><path fill="#e9e786" d=""/></svg>
